<svg xmlns="http://www.w3.org/2000/svg" viewBox="0 0 512 512" role="img" aria-label="Bar Carila cocktail glass icon">
  <defs>
    <linearGradient id="bg" x1="0" y1="0" x2="0" y2="1">
      <stop offset="0" stop-color="#21160e"/>
      <stop offset="0.52" stop-color="#120f0b"/>
      <stop offset="1" stop-color="#080a08"/>
    </linearGradient>
    <radialGradient id="glow" cx="50%" cy="42%" r="55%">
      <stop offset="0" stop-color="#c8922a" stop-opacity=".24"/>
      <stop offset="1" stop-color="#c8922a" stop-opacity="0"/>
    </radialGradient>
    <linearGradient id="drink" x1="0" y1="0" x2="1" y2="1">
      <stop offset="0" stop-color="#c56c28"/>
      <stop offset="1" stop-color="#6f2f1d"/>
    </linearGradient>
  </defs>
  <rect width="512" height="512" rx="108" fill="url(#bg)"/>
  <rect x="45" y="68" width="422" height="376" rx="56" fill="#060806" fill-opacity=".22" stroke="#c8922a" stroke-opacity=".28" stroke-width="3"/>
  <g opacity=".62">
    <path d="M64 150H448M64 224H448M64 298H448" stroke="#6f4825" stroke-width="8"/>
    <g fill="#704a29">
      <rect x="82" y="101" width="21" height="44" rx="5"/><rect x="112" y="91" width="17" height="54" rx="4"/><rect x="141" y="108" width="25" height="37" rx="5"/><rect x="348" y="97" width="20" height="48" rx="5"/><rect x="381" y="88" width="18" height="57" rx="4"/><rect x="413" y="105" width="23" height="40" rx="5"/>
      <rect x="76" y="178" width="20" height="41" rx="4"/><rect x="109" y="166" width="25" height="53" rx="5"/><rect x="384" y="170" width="20" height="49" rx="4"/><rect x="416" y="183" width="18" height="36" rx="4"/>
      <rect x="84" y="252" width="17" height="41" rx="4"/><rect x="113" y="242" width="23" height="51" rx="5"/><rect x="376" y="245" width="23" height="48" rx="5"/><rect x="410" y="257" width="18" height="36" rx="4"/>
    </g>
    <circle cx="106" cy="73" r="15" fill="#e9a848"/><circle cx="406" cy="73" r="15" fill="#e9a848"/>
  </g>
  <circle cx="256" cy="256" r="170" fill="url(#glow)"/>
  <g stroke="#f0ead8" stroke-width="11" stroke-linecap="round" stroke-linejoin="round">
    <path d="M151 185H361L256 303Z" fill="url(#drink)" fill-opacity=".94"/>
    <path d="M256 303V393" fill="none"/>
    <path d="M196 393H316" fill="none"/>
  </g>
  <path d="M178 211H334L256 287Z" fill="#c8922a" fill-opacity=".30"/>
  <circle cx="324" cy="209" r="13" fill="#b83b31" stroke="#f0ead8" stroke-width="4"/>
  <path d="M324 196L347 165" stroke="#9a6c35" stroke-width="5" stroke-linecap="round"/>
</svg>
